<?xml version="1.0" encoding="UTF-8"?>
<!-- Created with Inkscape (http://www.inkscape.org/) -->
<svg width="110mm" height="45mm" version="1.1" viewBox="0 0 110 45" xml:space="preserve" xmlns="http://www.w3.org/2000/svg"><g transform="translate(9.7304 .62877)" stroke-width="0"><path d="m15.989 6.8018c-9.9079 1.3402-17.163 12.389-14.409 23.736 2.7849 8.0304 9.1172 10.001 16.348 9.9556 6.8606-0.50864 9.0656 0.32495 14.462 0.73357 5.7395 0.6351 16.036-2.0095 14.462-14.881-1.9334-9.1951-16.2-20.509-30.862-19.544z" fill="#d2e9a3"/><path d="m48.294 41.513c-5.8916-0.41932-10.605-2.23-12.727-4.8884-1.2897-1.6163-2.5466-4.1114-3.1915-6.3354-0.74092-2.5552-1.0424-4.6802-1.12-7.8947-0.0276-1.1418-0.0655-1.5908-0.15193-1.7976-0.0634-0.15162-0.5197-0.88394-1.0141-1.6274-1.0016-1.5062-1.377-2.2304-1.6488-3.1812-0.40507-1.417-0.53685-3.472-0.29709-4.6328 0.75585-3.6593 3.5244-6.9588 7.1823-8.5596 1.7426-0.76262 3.581-1.1801 5.6688-1.2874 2.203-0.11318 4.8609 0.4447 7.2819 1.5284 5.4105 2.4219 9.4478 7.3006 11.496 13.892 0.96937 3.1197 1.1625 4.7018 1.1625 9.5221-1e-5 2.972-0.0669 3.9959-0.38143 5.8393-0.63463 3.7193-2.0264 6.2896-4.1525 7.669-1.1026 0.7154-1.6235 0.93116-3.4759 1.4398-1.1988 0.32919-1.2473 0.33616-2.4824 0.3566-0.69285 0.0115-1.6599-8e-3 -2.149-0.0424z" fill="#fad8ce"/><path d="m69.211 2.0842c-4.7104-1.3979-9.4719 1.4684-13.623 9.0124-1.4899 4.0057 0.78655 5.1092 1.6243 6.9165 1.5762 2.2787 1.7804 3.3568 2.3055 4.7158 0.16558 3.9356-0.50427 5.9915-0.83836 8.8028-0.84197 6.6822 4.4591 10.668 9.484 11.423 10.671 0.12591 16.767-5.2971 18.916-15.51 0.36565-2.4048 0.0703-4.389-1.1004-5.8162-0.98075-1.0433-1.5734-1.518-4.2442-1.7815-1.0589-0.023-2.0706-2.1222-2.0435-4.7158 0.36145-3.8198-0.051-5.3275-0.99556-5.7638-0.76579-0.27144-1.5661-0.4859-2.9343-0.52398-0.9646-0.17625-2.4613-1.1281-3.825-4.087-0.5899-0.89076-0.63477-1.9911-2.7247-2.6723z" fill="#facdea"/></g><text transform="scale(.98474 1.0155)" x="17.351477" y="27.119553" fill="#080707" font-family="'Baskerville Old Face'" font-size="9.8778px" letter-spacing=".15072px" opacity=".64398" stroke="#4cef63" stroke-width="6.8633e-9" style="mix-blend-mode:color-burn" xml:space="preserve"><tspan x="17.351477" y="27.119553" fill="#080707" font-family="'Ink Free'" font-size="9.8778px" letter-spacing=".15072px" stroke-width="6.8633e-9">Bazar Multicolor</tspan></text></svg>
