<?xml version="1.0" encoding="UTF-8" standalone="no"?>
<!-- Created with Inkscape (http://www.inkscape.org/) -->

<svg
   width="87mm"
   height="43mm"
   viewBox="0 0 87 43"
   version="1.1"
   id="svg1"
   xml:space="preserve"
   inkscape:export-filename="bitmap.png"
   inkscape:export-xdpi="96"
   inkscape:export-ydpi="96"
   inkscape:version="1.3.2 (091e20e, 2023-11-25, custom)"
   sodipodi:docname="logo_bm_2.svg"
   xmlns:inkscape="http://www.inkscape.org/namespaces/inkscape"
   xmlns:sodipodi="http://sodipodi.sourceforge.net/DTD/sodipodi-0.dtd"
   xmlns="http://www.w3.org/2000/svg"
   xmlns:svg="http://www.w3.org/2000/svg"><sodipodi:namedview
     id="namedview1"
     pagecolor="#ffffff"
     bordercolor="#000000"
     borderopacity="0.25"
     inkscape:showpageshadow="2"
     inkscape:pageopacity="0.0"
     inkscape:pagecheckerboard="0"
     inkscape:deskcolor="#d1d1d1"
     inkscape:document-units="mm"
     inkscape:zoom="1.2623761"
     inkscape:cx="203.18826"
     inkscape:cy="104.16864"
     inkscape:window-width="1366"
     inkscape:window-height="697"
     inkscape:window-x="-8"
     inkscape:window-y="-8"
     inkscape:window-maximized="1"
     inkscape:current-layer="layer1" /><defs
     id="defs1"><linearGradient
       id="swatch9"
       inkscape:swatch="solid"><stop
         style="stop-color:#4c245f;stop-opacity:1;"
         offset="0"
         id="stop10" /></linearGradient><linearGradient
       id="swatch8"
       inkscape:swatch="solid"><stop
         style="stop-color:#4c245f;stop-opacity:1;"
         offset="0"
         id="stop9" /></linearGradient></defs><g
     inkscape:label="Capa 1"
     inkscape:groupmode="layer"
     id="layer1"
     style="display:inline"><g
       id="g1"
       transform="translate(-0.53954349,-0.73875823)"><path
         style="fill:#d2e9a3;fill-opacity:1;fill-rule:nonzero;stroke:#000000;stroke-width:0;stroke-dasharray:none;stroke-opacity:1"
         d="M 15.988577,6.8017678 C 6.0806673,8.1419178 -1.1744927,19.190787 1.5791673,30.538007 c 2.78487,8.03038 9.1172097,10.00107 16.3481297,9.9556 6.86056,-0.50864 9.06555,0.32495 14.46182,0.73357 5.73946,0.6351 16.035614,-2.00948 14.461824,-14.881 C 44.917501,17.151047 30.650557,5.8369978 15.988577,6.8017678 Z"
         id="path16"
         sodipodi:nodetypes="cccccc" /><path
         style="fill:#fad8ce;fill-opacity:1;fill-rule:nonzero;stroke:#000000;stroke-width:0;stroke-dasharray:none;stroke-opacity:1"
         d="m 48.293711,41.512977 c -5.89156,-0.41932 -10.605466,-2.22996 -12.726666,-4.88837 -1.28967,-1.61628 -2.54657,-4.11137 -3.19149,-6.33543 -0.74092,-2.55517 -1.0424,-4.68017 -1.12001,-7.89469 -0.0276,-1.14178 -0.0655,-1.59079 -0.15193,-1.79759 -0.0634,-0.15162 -0.519705,-0.88394 -1.014125,-1.62739 -1.00165,-1.50615 -1.37701,-2.23037 -1.64883,-3.18124 -0.40507,-1.417 -0.53685,-3.47203 -0.29709,-4.63282 0.75585,-3.6592792 3.524445,-6.9587792 7.182335,-8.5596292 1.74256,-0.76262 3.581,-1.18013 5.668776,-1.28739 2.20297,-0.11318 4.86088,0.4447 7.28191,1.52843 5.41052,2.42193 9.44781,7.3006492 11.49581,13.8916892 0.96937,3.11971 1.16252,4.70182 1.1625,9.52208 -1e-5,2.97197 -0.0669,3.99594 -0.38143,5.8393 -0.63463,3.71927 -2.02636,6.28961 -4.15247,7.66905 -1.10264,0.7154 -1.62351,0.93116 -3.47593,1.43983 -1.19879,0.32919 -1.24729,0.33616 -2.48241,0.3566 -0.69285,0.0115 -1.65988,-0.008 -2.14895,-0.0424 z"
         id="path15" /><path
         style="fill:#facdea;fill-opacity:1;fill-rule:nonzero;stroke:#000000;stroke-width:0;stroke-dasharray:none;stroke-opacity:1"
         d="m 69.210897,2.0841544 c -4.71039,-1.39789997 -9.47193,1.46844 -13.62345,9.0124286 -1.48994,4.00571 0.78655,5.10922 1.62434,6.91653 1.57624,2.27871 1.78041,3.35685 2.3055,4.71579 0.16558,3.93561 -0.50427,5.99151 -0.83836,8.80285 -0.84197,6.68215 4.45913,10.66848 9.48401,11.42275 10.6707,0.12591 16.76728,-5.29711 18.91564,-15.50978 0.36565,-2.40482 0.0703,-4.389 -1.10036,-5.81616 -0.98075,-1.04328 -1.57335,-1.51798 -4.24422,-1.78153 -1.0589,-0.023 -2.07064,-2.12224 -2.04352,-4.71581 0.36145,-3.81977 -0.051,-5.3275297 -0.99556,-5.7637594 -0.76579,-0.27144 -1.56611,-0.4858996 -2.93428,-0.5239796 -0.9646,-0.1762496 -2.46133,-1.1280796 -3.82505,-4.0870396 -0.5899,-0.89076 -0.63477,-1.99112 -2.72469,-2.67229 z"
         id="path12"
         sodipodi:nodetypes="cccccccccccccc" /></g></g></svg>
